<?xml version="1.0" encoding="UTF-8"?>
<svg id="Vrstva_1" xmlns="http://www.w3.org/2000/svg" width="9.3346131cm" height="2.6224408cm" version="1.1" viewBox="0 0 264.6032104 74.3369064">
  <!-- Generator: Adobe Illustrator 29.7.1, SVG Export Plug-In . SVG Version: 2.1.1 Build 8)  -->
  <path d="M192.3925934,13.850944l11.3379974-2.2229996,2.071991,11.9389954-13.4099884-9.7159958ZM206.1625824,11.1519389l30.4960022-5.9799957-28.2229919,19.0680008-2.2730103-13.0880051ZM204.6675873,2.5399394l29.4570007.6040039-28.3860016,5.5649948-1.0709991-6.1689987ZM201.7115936-.0000615l1.594986,9.1860046-16.9799957,3.3290024,21.177002,15.3439941L247.3535919.9369426,201.7115936-.0000615Z"/>
  <g>
    <path d="M156.3012085,73.5860438h12.7509918V21.0850444h-12.7509918v20.776001h-23.0249939v-20.776001h-12.75v52.5009995h12.75v-20.8499985h23.0249939v20.8499985ZM203.8522034,56.6360431c0,5.1000023-3.3000031,8.0249977-7.875,8.0249977s-7.8759918-2.9249992-7.8759918-8.0250015v-22.2010002h-11.5500031v21.2260017c0,11.0999985,7.9499969,18.6750031,19.4259949,18.6750031,11.4750061,0,19.4250031-7.5749969,19.4250031-18.6749992v-21.2260017h-11.5500031v22.2010002ZM252.4532013,54.0110431c0,6.375-3.8249969,10.6499977-9,10.6499977-5.1759949,0-9.0009918-4.2750015-9.0009918-10.6500015s3.8249969-10.7249985,9.0009918-10.7249985c5.1750031,0,9,4.3499985,9,10.7249985M264.6032104,54.0110393c0-11.8499985-7.3500061-20.3260002-17.4750061-20.3260002-5.1759949,0-9.526001,2.1760025-12.6759949,5.776001v-21.5429993l-11.5500031,7.8040009v47.8640022h11.5500031v-4.6500015c2.9249878,3.375,7.0499878,5.4000015,12.0749969,5.4000015,10.7259979,0,18.076004-8.4749985,18.076004-20.3250008"/>
    <path d="M156.3012085,73.5860438h12.7509918V21.0850444h-12.7509918v20.776001h-23.0249939v-20.776001h-12.75v52.5009995h12.75v-20.8499985h23.0249939v20.8499985ZM203.8522034,56.6360431c0,5.1000023-3.3000031,8.0249977-7.875,8.0249977s-7.8759918-2.9249992-7.8759918-8.0250015v-22.2010002h-11.5500031v21.2260017c0,11.0999985,7.9499969,18.6750031,19.4259949,18.6750031,11.4750061,0,19.4250031-7.5749969,19.4250031-18.6749992v-21.2260017h-11.5500031v22.2010002ZM252.4532013,54.0110431c0,6.375-3.8249969,10.6499977-9,10.6499977-5.1759949,0-9.0009918-4.2750015-9.0009918-10.6500015s3.8249969-10.7249985,9.0009918-10.7249985c5.1750031,0,9,4.3499985,9,10.7249985M264.6032104,54.0110393c0-11.8499985-7.3500061-20.3260002-17.4750061-20.3260002-5.1759949,0-9.526001,2.1760025-12.6759949,5.776001v-21.5429993l-11.5500031,7.8040009v47.8640022h11.5500031v-4.6500015c2.9249878,3.375,7.0499878,5.4000015,12.0749969,5.4000015,10.7259979,0,18.076004-8.4749985,18.076004-20.3250008"/>
    <path d="M58.3499985,73.5868449h40.4260025v-10.8759995h-27.6750031v-9.9749985h23.9250031v-10.875h-23.9250031v-9.8999977h27.6750031v-10.8759995h-40.4260025v52.5019951ZM0,47.3358417c0,15.3000031,11.1750002,27.0009956,26.7759991,27.0009956,13.4250011,0,23.2500019-8.701004,25.2000027-19.8759995h-13.5750008c-1.7999992,5.1750031-6,9-11.6250019,9-8.1009998,0-13.4259987-6.9749985-13.4259987-16.125s5.3249989-16.1249962,13.4259987-16.1249962c5.6250019,0,9.8250027,3.8249969,11.6250019,8.9999962h13.5750008c-1.9500008-11.1749992-11.7750015-19.8759956-25.2000027-19.8759956-15.6009989.0000038-26.7759991,11.7010002-26.7759991,27.0009995"/>
  </g>
</svg>