<?xml version="1.0" encoding="UTF-8"?>
<svg id="Vrstva_1" xmlns="http://www.w3.org/2000/svg" width="9.3346131cm" height="3.4920063cm" version="1.1" viewBox="0 0 264.6032104 98.9860077">
  <!-- Generator: Adobe Illustrator 29.7.1, SVG Export Plug-In . SVG Version: 2.1.1 Build 8)  -->
  <path d="M192.3925934,13.8509479l11.3379974-2.2229996,2.071991,11.9389954-13.4099884-9.7159958ZM206.1625824,11.1519427l30.4960022-5.9799957-28.2229919,19.0680008-2.2730103-13.0880051ZM204.6675873,2.5399432l29.4570007.6040039-28.3860016,5.5649948-1.0709991-6.1689987ZM201.7115936-.0000577l1.594986,9.1860046-16.9799957,3.3290024,21.177002,15.3439941L247.3535919.9369464,201.7115936-.0000577Z"/>
  <g>
    <path d="M156.3012085,73.5860476h12.7509918V21.0850482h-12.7509918v20.776001h-23.0249939v-20.776001h-12.75v52.5009995h12.75v-20.8499985h23.0249939v20.8499985ZM203.8522034,56.6360469c0,5.1000023-3.3000031,8.0249977-7.875,8.0249977s-7.8759918-2.9249992-7.8759918-8.0250015v-22.2010002h-11.5500031v21.2260017c0,11.0999985,7.9499969,18.6750031,19.4259949,18.6750031,11.4750061,0,19.4250031-7.5749969,19.4250031-18.6749992v-21.2260017h-11.5500031v22.2010002ZM252.4532013,54.0110469c0,6.375-3.8249969,10.6499977-9,10.6499977-5.1759949,0-9.0009918-4.2750015-9.0009918-10.6500015s3.8249969-10.7249985,9.0009918-10.7249985c5.1750031,0,9,4.3499985,9,10.7249985M264.6032104,54.0110431c0-11.8499985-7.3500061-20.3260002-17.4750061-20.3260002-5.1759949,0-9.526001,2.1760025-12.6759949,5.776001v-21.5429993l-11.5500031,7.8040009v47.8640022h11.5500031v-4.6500015c2.9249878,3.375,7.0499878,5.4000015,12.0749969,5.4000015,10.7259979,0,18.076004-8.4749985,18.076004-20.3250008"/>
    <path d="M58.3499985,73.5868487h40.4260025v-10.8759995h-27.6750031v-9.9749985h23.9250031v-10.875h-23.9250031v-9.8999977h27.6750031v-10.8759995h-40.4260025v52.5019951ZM0,47.3358455c0,15.3000031,11.1750002,27.0009956,26.7759991,27.0009956,13.4250011,0,23.2500019-8.701004,25.2000027-19.8759995h-13.5750008c-1.7999992,5.1750031-6,9-11.6250019,9-8.1009998,0-13.4259987-6.9749985-13.4259987-16.125s5.3249989-16.1249962,13.4259987-16.1249962c5.6250019,0,9.8250027,3.8249969,11.6250019,8.9999962h13.5750008c-1.9500008-11.1749992-11.7750015-19.8759956-25.2000027-19.8759956-15.6009989.0000038-26.7759991,11.7010002-26.7759991,27.0009995"/>
    <path d="M186.6929932,98.8279452h2.6949921v-3.7600021l4.3640137-7.3460007h-3.1100006l-2.5380096,4.7910004-2.5379944-4.7910004h-3.2369995l4.3639984,7.3460007v3.7600021ZM168.344986,98.8279452h2.6950073v-6.5680008l3.2539978,4.5530014,3.2700043-4.5690002v6.5839996h2.6959991v-11.1060028h-2.5059967l-3.4120026,4.822998-3.4290009-4.822998h-2.5680084v11.1060028ZM156.7709961,93.2749438c0-1.935997,1.2689972-3.413002,3-3.413002,1.7299957,0,3,1.4769974,3,3.413002,0,1.935997-1.2700043,3.413002-3,3.413002-1.7310028,0-3-1.4769974-3-3.413002M153.947998,93.2749438c0,3.237999,2.4579926,5.7109985,5.822998,5.7109985,3.3799896,0,5.821991-2.4729996,5.821991-5.7109985s-2.4420013-5.7109985-5.821991-5.7109985c-3.3650055,0-5.822998,2.4729996-5.822998,5.7109985M140.9379883,98.8279452h2.5850067v-6.5999985l5.2379913,6.5999985h2.4420013v-11.1060028h-2.5849915v6.5999985l-5.2380066-6.5999985h-2.4420013v11.1060028ZM129.3639984,93.2749438c0-1.935997,1.2700043-3.413002,3-3.413002s3,1.4769974,3,3.413002c0,1.935997-1.2700043,3.413002-3,3.413002s-3-1.4769974-3-3.413002M126.5410004,93.2749438c0,3.237999,2.4579926,5.7109985,5.822998,5.7109985,3.3799896,0,5.821991-2.4729996,5.821991-5.7109985s-2.4420013-5.7109985-5.821991-5.7109985c-3.3650055,0-5.822998,2.4729996-5.822998,5.7109985M113.3359985,93.2749438c0,3.237999,2.362999,5.7109985,5.663002,5.7109985,2.8409958,0,4.9189987-1.8389969,5.3320007-4.2030029h-2.8720016c-.3810043,1.0950012-1.2700043,1.9049988-2.4599991,1.9049988-1.7140045,0-2.840004-1.4769974-2.840004-3.413002,0-1.935997,1.1259995-3.413002,2.840004-3.413002,1.1899948,0,2.0789948.8099976,2.4599991,1.9049988h2.8720016c-.413002-2.3639984-2.4910049-4.2030029-5.3320007-4.2030029-3.3000031,0-5.663002,2.4729996-5.663002,5.7109985M102.4449997,98.82793h8.5510025v-2.2990036h-5.8560028v-2.112999h5.0619965v-2.2979965h-5.0619965v-2.0970001h5.8560028v-2.2990036h-8.5510025v11.1060028ZM88.3359985,92.9429278v-2.9219971h2.4609985c.9370041,0,1.5240021.6190033,1.5240021,1.4609985,0,.8259964-.586998,1.4609985-1.5240021,1.4609985h-2.4609985ZM92.2890015,98.82793h3.1719971l-2.3310013-4.0299988c1.2529984-.6340027,2.0139999-1.8550034,2.0139999-3.3160019,0-2.1269989-1.6179962-3.7600021-4.0130005-3.7600021h-5.4899979v11.1060028h2.6949997v-3.5859985h1.9850006l1.9680023,3.5859985ZM76.0790024,94.275928l1.4759979-4.0780029,1.4759979,4.0780029h-2.9519958ZM71.6999969,98.82793h2.8240051l.7939987-2.2529984h4.473999l.8099976,2.2529984h2.951004l-4.3479996-11.1060028h-3.1570053l-4.3479996,11.1060028ZM61.8309975,98.82793h8.0750008v-2.2990036h-5.3789978v-8.8069992h-2.696003v11.1060028ZM48.4049988,87.7219272v6.427002c0,2.8399963,2.1409988,4.836998,5.125,4.836998,2.9990005,0,5.1399994-1.9970016,5.1399994-4.836998v-6.427002h-2.6959991v6.4110031c0,1.586998-1,2.5550003-2.4440002,2.5550003-1.4449997,0-2.4290009-.9680023-2.4290009-2.5550003v-6.4110031h-2.6959991ZM34.8209991,93.2749286c0,3.237999,2.362999,5.7109985,5.6629982,5.7109985,2.8400002,0,4.9190025-1.8389969,5.3320007-4.2030029h-2.8729973c-.3800011,1.0950012-1.269001,1.9049988-2.4590034,1.9049988-1.7139969,0-2.8400002-1.4769974-2.8400002-3.413002,0-1.935997,1.1260033-3.413002,2.8400002-3.413002,1.1900024,0,2.0790024.8099976,2.4590034,1.9049988h2.8729973c-.4129982-2.3639984-2.4920006-4.2030029-5.3320007-4.2030029-3.2999992,0-5.6629982,2.4729996-5.6629982,5.7109985M25.7469997,92.9429126v-2.9219971h2.4609985c.9370003,0,1.5240002.6190033,1.5240002,1.4609985,0,.8259964-.5869999,1.4609985-1.5240002,1.4609985h-2.4609985ZM29.7009983,98.8279147h3.1709995l-2.3309994-4.0299988c1.2530003-.6340027,2.013998-1.8550034,2.013998-3.3160019,0-2.1269989-1.6179981-3.7600021-4.0129967-3.7600021h-5.4900017v11.1060028h2.6950016v-3.5859985h1.9849987l1.9689999,3.5859985ZM17.1709995,98.8279147h2.6960011v-11.1060028h-2.6960011v11.1060028ZM3.46,93.2749133c0,3.237999,2.3629999,5.7109985,5.6630001,5.7109985,2.8400002,0,4.9189997-1.8389969,5.3319998-4.2030029h-2.8730001c-.3800001,1.0950012-1.2690001,1.9049988-2.4589996,1.9049988-1.7140002,0-2.8400002-1.4769974-2.8400002-3.413002,0-1.935997,1.1259999-3.413002,2.8400002-3.413002,1.1899996,0,2.0789995.8099976,2.4589996,1.9049988h2.8730001c-.4130001-2.3639984-2.4919996-4.2030029-5.3319998-4.2030029-3.3000002,0-5.6630001,2.4729996-5.6630001,5.7109985"/>
  </g>
</svg>